<svg xmlns="http://www.w3.org/2000/svg" width="1254" height="1254" viewBox="0 0 1254 1254">
  <defs>
    <clipPath id="rounded-canvas">
      <rect x="0" y="0" width="1254" height="1254" rx="240" ry="240"/>
    </clipPath>
  </defs>
  <g clip-path="url(#rounded-canvas)">
    <rect width="100%" height="100%" fill="white"/>
    <path d="M 921.0 1105.5 L 879.0 1105.5 L 831.0 1099.5 L 787.0 1088.5 L 746.0 1073.5 L 673.0 1037.5 L 524.0 948.5 L 469.0 919.5 L 464.0 921.5 L 426.0 960.5 L 403.0 980.5 L 373.0 1003.5 L 339.0 1025.5 L 305.0 1043.5 L 271.0 1057.5 L 236.0 1067.5 L 213.0 1071.5 L 160.0 1072.5 L 144.0 1070.5 L 108.0 1060.5 L 87.0 1049.5 L 77.0 1042.5 L 63.5 1029.0 L 51.5 1010.0 L 44.5 987.0 L 43.5 963.0 L 47.5 942.0 L 54.5 923.0 L 65.5 903.0 L 84.5 879.0 L 104.0 860.5 L 121.0 847.5 L 147.0 831.5 L 170.0 820.5 L 222.0 804.5 L 277.0 797.5 L 335.0 798.5 L 380.0 804.5 L 406.0 810.5 L 414.0 808.5 L 430.5 783.0 L 455.5 737.0 L 498.5 649.0 L 501.5 641.0 L 500.5 638.0 L 498.0 634.5 L 493.0 632.5 L 462.0 636.5 L 425.0 636.5 L 404.0 633.5 L 374.0 624.5 L 346.0 608.5 L 327.5 591.0 L 317.5 577.0 L 310.5 562.0 L 307.5 552.0 L 309.5 544.0 L 315.0 540.5 L 321.0 540.5 L 344.0 559.5 L 361.0 570.5 L 388.0 581.5 L 410.0 586.5 L 430.0 588.5 L 470.0 587.5 L 502.0 582.5 L 527.0 575.5 L 533.5 566.0 L 564.5 491.0 L 593.5 427.0 L 639.5 337.0 L 656.5 308.0 L 683.5 268.0 L 702.5 243.0 L 730.5 211.0 L 760.0 182.5 L 797.0 152.5 L 838.0 125.5 L 871.0 108.5 L 905.0 95.5 L 934.0 88.5 L 949.0 86.5 L 982.0 86.5 L 1002.0 90.5 L 1016.0 95.5 L 1034.0 107.5 L 1045.5 121.0 L 1054.5 145.0 L 1056.5 170.0 L 1054.5 192.0 L 1049.5 217.0 L 1036.5 254.0 L 1015.5 295.0 L 989.5 334.0 L 957.5 373.0 L 921.0 411.5 L 872.0 456.5 L 814.0 501.5 L 769.0 531.5 L 706.0 567.5 L 669.0 585.5 L 665.5 589.0 L 631.5 663.0 L 593.5 737.0 L 562.5 790.0 L 530.5 839.0 L 532.5 844.0 L 537.0 847.5 L 763.0 936.5 L 803.0 949.5 L 859.0 964.5 L 931.0 976.5 L 959.0 978.5 L 1003.0 978.5 L 1044.0 974.5 L 1083.0 966.5 L 1132.0 949.5 L 1164.0 933.5 L 1200.0 910.5 L 1204.0 908.5 L 1206.5 910.0 L 1201.5 925.0 L 1191.5 943.0 L 1166.5 979.0 L 1132.0 1016.5 L 1099.0 1043.5 L 1058.0 1068.5 L 1016.0 1086.5 L 968.0 1099.5 L 921.0 1105.5 Z M 715.5 503.0 L 735.0 491.5 L 770.0 465.5 L 829.0 415.5 L 887.5 357.0 L 941.5 293.0 L 979.5 239.0 L 1001.5 196.0 L 1008.5 171.0 L 1008.5 151.0 L 1003.5 138.0 L 999.0 132.5 L 985.0 125.5 L 969.0 125.5 L 958.0 128.5 L 944.0 135.5 L 914.0 158.5 L 886.5 187.0 L 868.5 209.0 L 820.5 278.0 L 788.5 332.0 L 756.5 391.0 L 706.5 492.0 L 705.5 495.0 L 707.5 500.0 L 715.5 503.0 Z M 170.5 1004.0 L 191.0 1000.5 L 215.0 992.5 L 250.0 975.5 L 274.0 960.5 L 308.0 934.5 L 351.5 892.0 L 359.5 882.0 L 360.5 878.0 L 358.5 873.0 L 340.0 866.5 L 299.0 858.5 L 261.0 855.5 L 234.0 856.5 L 207.0 860.5 L 180.0 868.5 L 152.0 881.5 L 135.0 892.5 L 111.5 914.0 L 100.5 929.0 L 91.5 953.0 L 92.5 970.0 L 98.5 983.0 L 109.0 993.5 L 123.0 1000.5 L 140.0 1004.5 L 170.5 1004.0 Z" fill="black" fill-rule="evenodd"/>
  </g>
</svg>
